<svg width="492" height="296" viewBox="0 0 492 296" fill="none" xmlns="http://www.w3.org/2000/svg">
<path d="M27 0V43L11 59V145L1 162V236H21M60 0V21.5L48 33V86L32 104V198L21 218V236M21 236H65M93 0V43L75 59V155L98 198V236M98 236H65M98 236H130M130 0V59L98 86V155L65 198V236M169 0V33L148 43V118L130 135V236M130 236H152M202 0V70L176 86V150L152 166V236M152 236H186M235 0V111L210 125V198L186 212V236M186 236H235M275 0V43L252 59V155L235 166V236M235 236H262M318 0V59L284 78V166L262 181V236M262 236H296M360 0V27L344 33V181L323 198V236M323 236H296M323 236H355M405 0V78L318 125V176L296 188V236M444 0V33L422 43V125L382 145V188L355 207V236M355 236H395M481 0V78L449 86V150L422 162V198L395 218V236M395 236H434L449 218L457 256L469 176L481 295L491 218" stroke="black"/>
</svg>
